<svg xmlns="http://www.w3.org/2000/svg" viewBox="0 0 124.44 15.1"><defs><style>.cls-1{fill:#231f20;}</style></defs><g id="Layer_2" data-name="Layer 2"><g id="Layer_1-2" data-name="Layer 1"><path class="cls-1" d="M5.7,4.6A1.93,1.93,0,0,1,6.25,6v4.71H5.14V6.07a1,1,0,0,0-.29-.74A1,1,0,0,0,4.09,5H3a1.22,1.22,0,0,0-.8.32,1.84,1.84,0,0,0-.55.84,1.87,1.87,0,0,1,.72.57,1.38,1.38,0,0,1,.26.79V9.62a1.19,1.19,0,0,1-.36.9,1.26,1.26,0,0,1-.94.35,1.29,1.29,0,0,1-.93-.34A1.23,1.23,0,0,1,0,9.62a1.2,1.2,0,0,1,.33-.88,1.18,1.18,0,0,1,.88-.33l.24,0V7.56a.87.87,0,0,0-.28-.64A1.5,1.5,0,0,0,.4,6.56,3.18,3.18,0,0,1,.85,5.3a2.83,2.83,0,0,1,.91-.91,2.24,2.24,0,0,1,1.18-.33H4.25A2,2,0,0,1,5.7,4.6ZM1.69,10a.54.54,0,0,0,.16-.42.52.52,0,0,0-.16-.4.56.56,0,0,0-.41-.15.56.56,0,0,0-.41.15.55.55,0,0,0-.15.4A.57.57,0,0,0,.87,10a.56.56,0,0,0,.41.15A.56.56,0,0,0,1.69,10Z"/><path class="cls-1" d="M3.35,2.74A1.28,1.28,0,0,1,2.69,1.6,1.11,1.11,0,0,1,3,.75,1.26,1.26,0,0,1,3.91.43a1.26,1.26,0,0,1,.88.31,1.11,1.11,0,0,1,.33.84A.93.93,0,0,1,5,2a.72.72,0,0,1-.27.3h0a1.81,1.81,0,0,0,.46,0,1.57,1.57,0,0,0,1.22-.48A2,2,0,0,0,6.9.5h1a2.58,2.58,0,0,1-.73,2,2.74,2.74,0,0,1-2,.71A3.41,3.41,0,0,1,3.35,2.74ZM4.3,2a.56.56,0,0,0,.14-.39.56.56,0,0,0-.14-.39.53.53,0,0,0-.39-.15.51.51,0,0,0-.54.54A.55.55,0,0,0,4.3,2Z"/><path class="cls-1" d="M13.73,4.52a1.82,1.82,0,0,1,.43,1.3v4.93H13V5.81a1,1,0,0,0-.12-.54.4.4,0,0,0-.36-.19h0l-2.2,5.67H9V6.53l-.27,0A1.19,1.19,0,0,1,7.46,5.3a1.22,1.22,0,0,1,.36-.92,1.33,1.33,0,0,1,1-.35,1.31,1.31,0,0,1,1,.35,1.22,1.22,0,0,1,.36.92V9.06h0l1.9-5h.5A1.6,1.6,0,0,1,13.73,4.52ZM8.36,5.71a.57.57,0,0,0,.42.16.55.55,0,0,0,.57-.57.57.57,0,0,0-.16-.42.56.56,0,0,0-.41-.15.52.52,0,0,0-.57.57A.56.56,0,0,0,8.36,5.71Z"/><path class="cls-1" d="M16.88,5.26a1.26,1.26,0,0,0-.31.76,11.22,11.22,0,0,1,3.52,1.17V9.6a1.22,1.22,0,0,1-.36.92,1.29,1.29,0,0,1-1,.35,1.33,1.33,0,0,1-1-.35,1.22,1.22,0,0,1-.36-.92,1.15,1.15,0,0,1,.35-.89,1.27,1.27,0,0,1,.92-.35l.26,0V7.63a12.5,12.5,0,0,0-3.51-1A3,3,0,0,1,16,4.72,1.93,1.93,0,0,1,17.6,4a2,2,0,0,1,.57.07,3.74,3.74,0,0,1,.59.2,5,5,0,0,0,.5.17,1.71,1.71,0,0,0,1.51-.35v1a1.48,1.48,0,0,1-1,.37,2,2,0,0,1-.5-.06l-.56-.17a5.36,5.36,0,0,0-.59-.17A1.88,1.88,0,0,0,17.6,5,1,1,0,0,0,16.88,5.26ZM19.18,10a.57.57,0,0,0,.15-.42A.52.52,0,0,0,18.77,9a.57.57,0,0,0-.42.15.54.54,0,0,0-.16.41.54.54,0,0,0,.16.42.57.57,0,0,0,.42.16A.58.58,0,0,0,19.18,10Z"/><path class="cls-1" d="M21.08,0a1.84,1.84,0,0,1-.5,1.2,1.54,1.54,0,0,1-1.14.43h-.38a1,1,0,0,1,.08.37,1.08,1.08,0,0,1-.34.84,1.24,1.24,0,0,1-.88.32,1.25,1.25,0,0,1-.9-.33A1.1,1.1,0,0,1,16.68,2,1.11,1.11,0,0,1,17,1.12a1.22,1.22,0,0,1,.9-.33h1.41a.7.7,0,0,0,.52-.21A1,1,0,0,0,20.12,0ZM18.31,2.36A.49.49,0,0,0,18.46,2a.54.54,0,1,0-1.08,0,.49.49,0,0,0,.15.38.58.58,0,0,0,.78,0Z"/><path class="cls-1" d="M26.76,4.64a1.69,1.69,0,0,1,.49.6,1.92,1.92,0,0,1,.17.81v4.7H26.29V10a2.92,2.92,0,0,0-.58-1.79,1.76,1.76,0,0,0-1.41-.65,1.29,1.29,0,0,0-.82.24.85.85,0,0,0-.33.68,1.29,1.29,0,0,1,.29,0,1.21,1.21,0,0,1,.87.32,1.3,1.3,0,0,1,0,1.76,1.47,1.47,0,0,1-1.88,0A1.18,1.18,0,0,1,22,9.64v-1a2,2,0,0,1,.59-1.54,2.3,2.3,0,0,1,1.65-.55,2.53,2.53,0,0,1,1.18.27,2,2,0,0,1,.84.76V6.06a1.07,1.07,0,0,0-.25-.74A.84.84,0,0,0,25.39,5H24.06a1.21,1.21,0,0,0-.85.3,1,1,0,0,0-.31.78H21.8a1.93,1.93,0,0,1,.62-1.49,2.32,2.32,0,0,1,1.64-.57h1.43a1.52,1.52,0,0,0,.7-.13.78.78,0,0,0,.34-.45l0-.11H27.7l0,.12A1.58,1.58,0,0,1,26.76,4.64Zm-3,4.59a.61.61,0,0,0-.82,0,.56.56,0,0,0-.15.41.55.55,0,0,0,.15.4.61.61,0,0,0,.82,0,.55.55,0,0,0,.15-.4A.56.56,0,0,0,23.75,9.23Z"/><path class="cls-1" d="M30.14,5.26a1.26,1.26,0,0,0-.31.76,11.22,11.22,0,0,1,3.52,1.17V9.6a1.22,1.22,0,0,1-.36.92,1.29,1.29,0,0,1-1,.35,1.33,1.33,0,0,1-1-.35,1.22,1.22,0,0,1-.36-.92,1.15,1.15,0,0,1,.35-.89A1.27,1.27,0,0,1,32,8.36l.26,0V7.63a12.5,12.5,0,0,0-3.51-1,3,3,0,0,1,.56-1.95A1.93,1.93,0,0,1,30.86,4a2,2,0,0,1,.57.07,3.74,3.74,0,0,1,.59.2,5,5,0,0,0,.5.17A1.71,1.71,0,0,0,34,4.12v1a1.48,1.48,0,0,1-1,.37,2,2,0,0,1-.5-.06l-.56-.17a5.36,5.36,0,0,0-.59-.17A1.88,1.88,0,0,0,30.86,5,1,1,0,0,0,30.14,5.26ZM32.44,10a.57.57,0,0,0,.15-.42A.52.52,0,0,0,32,9a.57.57,0,0,0-.42.15.54.54,0,0,0-.16.41.54.54,0,0,0,.16.42.57.57,0,0,0,.42.16A.58.58,0,0,0,32.44,10Z"/><path class="cls-1" d="M36.28,5.26A1.27,1.27,0,0,0,36,6a11.13,11.13,0,0,1,3.52,1.17V9.6a1.22,1.22,0,0,1-.36.92,1.29,1.29,0,0,1-1,.35,1.33,1.33,0,0,1-1-.35,1.22,1.22,0,0,1-.36-.92,1.18,1.18,0,0,1,.35-.89,1.27,1.27,0,0,1,.92-.35l.26,0V7.63a12.4,12.4,0,0,0-3.51-1,3,3,0,0,1,.56-1.95A2,2,0,0,1,37,4a2.12,2.12,0,0,1,.57.07,4,4,0,0,1,.58.2c.2.08.37.13.5.17a1.54,1.54,0,0,0,.43,0,1.49,1.49,0,0,0,1.08-.4v1a1.46,1.46,0,0,1-1,.37,2.07,2.07,0,0,1-.5-.06l-.55-.17a6.11,6.11,0,0,0-.6-.17A1.86,1.86,0,0,0,37,5,.94.94,0,0,0,36.28,5.26ZM38.57,10a.57.57,0,0,0,.15-.42A.52.52,0,0,0,38.16,9a.57.57,0,0,0-.42.15.58.58,0,0,0-.16.41.55.55,0,0,0,.58.58A.58.58,0,0,0,38.57,10Z"/><path class="cls-1" d="M48.2,4.15V9.89a.82.82,0,0,1-.23.63.86.86,0,0,1-.65.23H46.8L45.34,6.3l-1.49,4.45h-.51a.89.89,0,0,1-.66-.23.82.82,0,0,1-.24-.63V6.52a1.39,1.39,0,0,1-1.2-.31,1.22,1.22,0,0,1-.34-.91,1.22,1.22,0,0,1,.36-.92,1.45,1.45,0,0,1,1.89,0,1.22,1.22,0,0,1,.36.92V9.36h0l1.55-4.58h.25a.35.35,0,0,1,.23.09.67.67,0,0,1,.16.25l1.41,4.23h0V4.15ZM41.8,5.71a.52.52,0,0,0,.4.16.54.54,0,0,0,.42-.16.53.53,0,0,0,.16-.41.53.53,0,0,0-.58-.57.55.55,0,0,0-.4.15.57.57,0,0,0-.16.42A.53.53,0,0,0,41.8,5.71Z"/><path class="cls-1" d="M49,0a1.9,1.9,0,0,1-.51,1.2,1.54,1.54,0,0,1-1.14.43H47a1,1,0,0,1,.08.37,1.11,1.11,0,0,1-.33.84,1.39,1.39,0,0,1-1.79,0A1.14,1.14,0,0,1,44.59,2a1.11,1.11,0,0,1,.34-.86,1.22,1.22,0,0,1,.9-.33h1.41a.72.72,0,0,0,.53-.21A1,1,0,0,0,48,0ZM46.22,2.36A.49.49,0,0,0,46.37,2a.54.54,0,1,0-1.08,0,.49.49,0,0,0,.15.38.58.58,0,0,0,.78,0Z"/><path class="cls-1" d="M56.72,4.15V9.89a.82.82,0,0,1-.23.63.86.86,0,0,1-.65.23h-.52L53.86,6.3l-1.49,4.45h-.51a.89.89,0,0,1-.66-.23A.82.82,0,0,1,51,9.89V6.52a1.2,1.2,0,0,1-.28,0,1.26,1.26,0,0,1-.92-.34,1.22,1.22,0,0,1-.34-.91,1.22,1.22,0,0,1,.36-.92,1.45,1.45,0,0,1,1.89,0A1.22,1.22,0,0,1,52,5.3V9.36h0l1.55-4.58h.25a.35.35,0,0,1,.23.09.67.67,0,0,1,.16.25l1.41,4.23h0V4.15Zm-6.4,1.56a.52.52,0,0,0,.4.16.54.54,0,0,0,.42-.16.53.53,0,0,0,.16-.41.53.53,0,0,0-.58-.57.55.55,0,0,0-.4.15.57.57,0,0,0-.16.42A.53.53,0,0,0,50.32,5.71Z"/><path class="cls-1" d="M59.45,5.26a1.2,1.2,0,0,0-.31.76,11.15,11.15,0,0,1,3.51,1.17V9.6a1.22,1.22,0,0,1-.36.92,1.49,1.49,0,0,1-1.92,0A1.19,1.19,0,0,1,60,9.6a1.18,1.18,0,0,1,.35-.89,1.28,1.28,0,0,1,.92-.35l.27,0V7.63a12.59,12.59,0,0,0-3.52-1,3,3,0,0,1,.56-1.95A2,2,0,0,1,60.17,4a2,2,0,0,1,.57.07,4,4,0,0,1,.58.2c.2.08.37.13.5.17a1.56,1.56,0,0,0,.44,0,1.52,1.52,0,0,0,1.08-.4v1a1.5,1.5,0,0,1-1,.37,2.07,2.07,0,0,1-.5-.06l-.55-.17a6.11,6.11,0,0,0-.6-.17A1.8,1.8,0,0,0,60.17,5,.94.94,0,0,0,59.45,5.26ZM61.74,10a.57.57,0,0,0,.16-.42.58.58,0,0,0-.16-.41A.56.56,0,0,0,61.33,9a.6.6,0,0,0-.42.15.58.58,0,0,0-.15.41.57.57,0,0,0,.15.42.61.61,0,0,0,.42.16A.57.57,0,0,0,61.74,10Z"/><path class="cls-1" d="M74.17,8.91a1.28,1.28,0,0,1,.18.68,1.26,1.26,0,0,1-.36.93,1.32,1.32,0,0,1-.95.35,1.28,1.28,0,0,1-1-.35,1.2,1.2,0,0,1-.36-.91,1.23,1.23,0,0,1,0-.35,5,5,0,0,0-1,.63,5.27,5.27,0,0,0-.9.86h-1V6.52a1.09,1.09,0,0,1-.26,0,1.25,1.25,0,0,1-.92-.34,1.22,1.22,0,0,1-.34-.91,1.21,1.21,0,0,1,.35-.92,1.35,1.35,0,0,1,1-.35,1.33,1.33,0,0,1,1,.35,1.22,1.22,0,0,1,.36.92V9.48A5.27,5.27,0,0,1,72.55,8.2v-4h1.12V8.47A1.12,1.12,0,0,1,74.17,8.91ZM69,5.71a.56.56,0,0,0,.15-.41A.6.6,0,0,0,69,4.88a.57.57,0,0,0-.42-.15.56.56,0,0,0-.41.15.6.6,0,0,0-.15.42.56.56,0,0,0,.15.41.53.53,0,0,0,.41.16A.54.54,0,0,0,69,5.71ZM73.44,10a.56.56,0,0,0,.15-.41.57.57,0,0,0-.15-.42A.55.55,0,0,0,73,9a.58.58,0,0,0-.41.16.57.57,0,0,0-.15.42.56.56,0,0,0,.15.41.58.58,0,0,0,.82,0Z"/><path class="cls-1" d="M80.84,4.67a2.21,2.21,0,0,1,.63,1.64v4.44H80.35V6.31A1.31,1.31,0,0,0,80,5.39,1.06,1.06,0,0,0,79.21,5h-1.3a1.2,1.2,0,0,0-1.26,1.27V9.14h0l.63-1.54a2.15,2.15,0,0,1,.52-.78,1.13,1.13,0,0,1,.72-.23,1.25,1.25,0,0,1,.9.32,1.18,1.18,0,0,1,.34.87,1.15,1.15,0,0,1-.34.85,1.21,1.21,0,0,1-.89.33,1.1,1.1,0,0,1-.47-.1,1,1,0,0,1-.36-.27l-1,2.16H75.6V6.31a2.21,2.21,0,0,1,.63-1.64,2.33,2.33,0,0,1,1.68-.61h1.3A2.21,2.21,0,0,1,80.84,4.67Zm-2.69,2.7a.56.56,0,0,0-.15.41.55.55,0,0,0,.15.4.51.51,0,0,0,.4.16A.54.54,0,0,0,79,8.18a.55.55,0,0,0,.15-.4A.56.56,0,0,0,79,7.37a.58.58,0,0,0-.41-.15A.54.54,0,0,0,78.15,7.37Z"/><path class="cls-1" d="M84.19,5.26a1.2,1.2,0,0,0-.31.76A11.31,11.31,0,0,1,87.4,7.19V9.6a1.23,1.23,0,0,1-.37.92,1.26,1.26,0,0,1-1,.35,1.29,1.29,0,0,1-1-.35,1.19,1.19,0,0,1-.37-.92,1.15,1.15,0,0,1,.36-.89A1.24,1.24,0,0,1,86,8.36l.27,0V7.63a12.59,12.59,0,0,0-3.52-1,3,3,0,0,1,.57-1.95A1.92,1.92,0,0,1,84.91,4a2,2,0,0,1,.57.07,3.66,3.66,0,0,1,.58.2,5,5,0,0,0,.51.17,1.49,1.49,0,0,0,.43,0,1.52,1.52,0,0,0,1.08-.4v1a1.49,1.49,0,0,1-1,.37,2.1,2.1,0,0,1-.51-.06L86,5.22c-.25-.08-.45-.14-.59-.17A1.88,1.88,0,0,0,84.91,5,1,1,0,0,0,84.19,5.26ZM86.48,10a.54.54,0,0,0,.16-.42.54.54,0,0,0-.16-.41A.56.56,0,0,0,86.07,9a.6.6,0,0,0-.42.15.58.58,0,0,0-.15.41.57.57,0,0,0,.15.42.61.61,0,0,0,.42.16A.57.57,0,0,0,86.48,10Z"/><path class="cls-1" d="M92.79,6.06a1.07,1.07,0,0,0-.25-.74A.84.84,0,0,0,91.88,5H91a.91.91,0,0,0-.75.36,1.44,1.44,0,0,0-.29.95H88.85a2.33,2.33,0,0,1,.58-1.66A2,2,0,0,1,91,4.06h.9a2,2,0,0,1,1.47.55,1.92,1.92,0,0,1,.56,1.45v4.69H92.79Z"/><path class="cls-1" d="M102,8.91a1.28,1.28,0,0,1,.18.68,1.26,1.26,0,0,1-.36.93,1.32,1.32,0,0,1-.95.35,1.28,1.28,0,0,1-1-.35,1.2,1.2,0,0,1-.36-.91,1.23,1.23,0,0,1,0-.35,5,5,0,0,0-1,.63,4.93,4.93,0,0,0-.9.86h-1V6.52a1.12,1.12,0,0,1-.27,0A1.19,1.19,0,0,1,95.12,5.3a1.22,1.22,0,0,1,.36-.92,1.49,1.49,0,0,1,1.92,0,1.22,1.22,0,0,1,.36.92V9.48A4.76,4.76,0,0,1,99,8.66a4.56,4.56,0,0,1,1.41-.46v-4h1.11V8.47A1.1,1.1,0,0,1,102,8.91Zm-5.14-3.2A.56.56,0,0,0,97,5.3a.6.6,0,0,0-.15-.42.57.57,0,0,0-.42-.15.56.56,0,0,0-.41.15.6.6,0,0,0-.15.42.56.56,0,0,0,.15.41.53.53,0,0,0,.41.16A.54.54,0,0,0,96.86,5.71Zm4.41,4.3a.56.56,0,0,0,.15-.41.57.57,0,0,0-.15-.42.55.55,0,0,0-.41-.16.58.58,0,0,0-.41.16.57.57,0,0,0-.15.42.56.56,0,0,0,.15.41.58.58,0,0,0,.82,0Z"/><path class="cls-1" d="M101.3,11.89a1.2,1.2,0,0,1,.35.89V15.1h-1.1V14l-.22,0a1.22,1.22,0,0,1-.89-.33,1.18,1.18,0,0,1-.33-.87,1.19,1.19,0,0,1,.34-.89,1.33,1.33,0,0,1,.94-.33A1.26,1.26,0,0,1,101.3,11.89ZM100,13.18a.56.56,0,0,0,.41.15.58.58,0,0,0,.41-.15.54.54,0,0,0,.15-.4.52.52,0,0,0-.56-.56.56.56,0,0,0-.41.15.58.58,0,0,0-.16.41A.54.54,0,0,0,100,13.18Z"/><path class="cls-1" d="M104.37,5.26a1.26,1.26,0,0,0-.31.76,11.22,11.22,0,0,1,3.52,1.17V9.6a1.22,1.22,0,0,1-.36.92,1.29,1.29,0,0,1-1,.35,1.33,1.33,0,0,1-1-.35,1.22,1.22,0,0,1-.36-.92,1.15,1.15,0,0,1,.35-.89,1.27,1.27,0,0,1,.92-.35l.26,0V7.63a12.5,12.5,0,0,0-3.51-1,3,3,0,0,1,.56-1.95A1.93,1.93,0,0,1,105.09,4a2,2,0,0,1,.57.07,3.74,3.74,0,0,1,.59.2,5,5,0,0,0,.5.17,1.71,1.71,0,0,0,1.51-.35v1a1.48,1.48,0,0,1-1,.37,2,2,0,0,1-.5-.06l-.56-.17a5.36,5.36,0,0,0-.59-.17,1.88,1.88,0,0,0-.49-.06A1,1,0,0,0,104.37,5.26Zm2.3,4.76a.57.57,0,0,0,.15-.42.52.52,0,0,0-.56-.56.57.57,0,0,0-.42.15.54.54,0,0,0-.16.41.54.54,0,0,0,.16.42.57.57,0,0,0,.42.16A.58.58,0,0,0,106.67,10Z"/><path class="cls-1" d="M104.88,2.74a1.28,1.28,0,0,1-.66-1.14,1.11,1.11,0,0,1,.33-.85,1.4,1.4,0,0,1,1.77,0,1.11,1.11,0,0,1,.33.84.93.93,0,0,1-.09.4.72.72,0,0,1-.27.3h0a1.81,1.81,0,0,0,.46,0A1.57,1.57,0,0,0,108,1.85,2,2,0,0,0,108.43.5h1a2.58,2.58,0,0,1-.73,2,2.74,2.74,0,0,1-2,.71A3.41,3.41,0,0,1,104.88,2.74Zm1-.75A.56.56,0,0,0,106,1.6a.56.56,0,0,0-.14-.39.54.54,0,0,0-.93.39.55.55,0,0,0,.93.39Z"/><path class="cls-1" d="M110.06,7.61a1,1,0,0,0-.25-.68,1.34,1.34,0,0,0-.71-.37,3.36,3.36,0,0,1,.46-1.26,3,3,0,0,1,.93-.91,2.31,2.31,0,0,1,1.2-.33h1.44a2,2,0,0,1,1.46.54A2,2,0,0,1,115.14,6v4.71H114V6.07a1,1,0,0,0-1-1h-1.29a1.27,1.27,0,0,0-.82.32,2,2,0,0,0-.57.84,1.48,1.48,0,0,1,.64.57,1.55,1.55,0,0,1,.24.84v3.14h-1.12Z"/><path class="cls-1" d="M124.43,6.42l0,.14a1.79,1.79,0,0,1-1.26,1.67V9a1.77,1.77,0,0,1-.43,1.26,1.56,1.56,0,0,1-1.22.47h-2.76a.85.85,0,0,1-.63-.22.82.82,0,0,1-.23-.61V6.53l-.26,0a1.19,1.19,0,0,1-1.26-1.25,1.22,1.22,0,0,1,.36-.92,1.49,1.49,0,0,1,1.92,0,1.22,1.22,0,0,1,.36.92V9.77h2.36a.71.71,0,0,0,.55-.2.89.89,0,0,0,.16-.58V8.32h-1.44a1.2,1.2,0,0,1-.86-.32,1.11,1.11,0,0,1-.33-.84,1.1,1.1,0,0,1,.32-.81,1.27,1.27,0,0,1,1.65,0,1,1,0,0,1,.32.79.88.88,0,0,1-.07.33h.41V4.14h1.08V7.36a1,1,0,0,0,.47-.8l0-.14Zm-7.17-.71a.61.61,0,0,0,.82,0,.56.56,0,0,0,.15-.41.6.6,0,0,0-.15-.42.64.64,0,0,0-.82,0,.6.6,0,0,0-.15.42A.56.56,0,0,0,117.26,5.71ZM121,7.54a.5.5,0,0,0,.14-.38A.45.45,0,0,0,121,6.8a.53.53,0,0,0-.37-.14.5.5,0,0,0-.37.14.49.49,0,0,0-.14.36.54.54,0,0,0,.14.38.5.5,0,0,0,.37.14A.53.53,0,0,0,121,7.54Z"/><path class="cls-1" d="M124.44.08a1.63,1.63,0,0,1-.52,1.08,1.62,1.62,0,0,1-1.13.39h-.45a.87.87,0,0,1,.12.45,1,1,0,0,1-.32.78,1.2,1.2,0,0,1-.83.29,1.17,1.17,0,0,1-.84-.3,1.08,1.08,0,0,1-.32-.8,1.07,1.07,0,0,1,.32-.81,1.13,1.13,0,0,1,.84-.31h1.51a.8.8,0,0,0,.54-.2,1.11,1.11,0,0,0,.29-.57Zm-2.73,2.29a.54.54,0,0,0,.15-.4.53.53,0,0,0-.15-.39.54.54,0,0,0-.4-.15.56.56,0,0,0-.41.15.57.57,0,0,0-.15.39.58.58,0,0,0,.15.4.56.56,0,0,0,.41.15A.54.54,0,0,0,121.71,2.37Z"/></g></g></svg>